<svg xmlns="http://www.w3.org/2000/svg" viewBox="0 0 120 120" role="img" aria-label="eu-compliance-skills logo">
  <defs>
    <linearGradient id="bg" x1="0" y1="0" x2="1" y2="1">
      <stop offset="0" stop-color="#0b1220"/>
      <stop offset="1" stop-color="#13224a"/>
    </linearGradient>
    <linearGradient id="bar" x1="0" y1="0" x2="1" y2="0">
      <stop offset="0" stop-color="#fbbf24"/>
      <stop offset="1" stop-color="#f59e0b"/>
    </linearGradient>
  </defs>
  <rect x="4" y="4" width="112" height="112" rx="24" fill="url(#bg)"/>
  <g fill="#fbbf24" opacity="0.85">
    <circle cx="60" cy="26" r="2.6"/><circle cx="77" cy="30.6" r="2.6"/>
    <circle cx="89.4" cy="43" r="2.6"/><circle cx="94" cy="60" r="2.6"/>
    <circle cx="89.4" cy="77" r="2.6"/><circle cx="77" cy="89.4" r="2.6"/>
    <circle cx="60" cy="94" r="2.6"/><circle cx="43" cy="89.4" r="2.6"/>
    <circle cx="30.6" cy="77" r="2.6"/><circle cx="26" cy="60" r="2.6"/>
    <circle cx="30.6" cy="43" r="2.6"/><circle cx="43" cy="30.6" r="2.6"/>
  </g>
  <path d="M46 80 L46 54" stroke="#94a3b8" stroke-width="4" stroke-linecap="round"/>
  <path d="M74 80 L74 54" stroke="#94a3b8" stroke-width="4" stroke-linecap="round"/>
  <path d="M44 62 L78 52" stroke="url(#bar)" stroke-width="5" stroke-linecap="round"/>
  <circle cx="46" cy="62" r="3.6" fill="#fbbf24"/>
</svg>
